<svg xmlns="http://www.w3.org/2000/svg" width="24" height="24" fill="none" viewBox="0 0 24 24" id="mastercard"><path fill="#3C3C3C" fill-rule="evenodd" d="M4 4.25C2.48122 4.25 1.25 5.48122 1.25 7V17C1.25 18.5188 2.48122 19.75 4 19.75H20C21.5188 19.75 22.75 18.5188 22.75 17V7C22.75 5.48122 21.5188 4.25 20 4.25H4Z" clip-rule="evenodd"></path><path fill="#A2ADB8" fill-rule="evenodd" d="M1.25 9.25H22.75V10.75H1.25V9.25Z" clip-rule="evenodd"></path><path fill="#EE4D4D" fill-rule="evenodd" d="M15.5 12.25C14.2574 12.25 13.25 13.2574 13.25 14.5C13.25 15.7426 14.2574 16.75 15.5 16.75C16.7426 16.75 17.75 15.7426 17.75 14.5C17.75 13.2574 16.7426 12.25 15.5 12.25Z" clip-rule="evenodd"></path><path fill="#FFC44D" fill-rule="evenodd" d="M17.5 12.25C16.2574 12.25 15.25 13.2574 15.25 14.5C15.25 15.7426 16.2574 16.75 17.5 16.75C18.7426 16.75 19.75 15.7426 19.75 14.5C19.75 13.2574 18.7426 12.25 17.5 12.25Z" clip-rule="evenodd"></path><path fill="#FF884D" fill-rule="evenodd" d="M16.5 12.4839C15.7591 12.8521 15.25 13.6166 15.25 14.5C15.25 15.3834 15.7591 16.148 16.5 16.5161C17.2409 16.148 17.75 15.3834 17.75 14.5C17.75 13.6166 17.2409 12.8521 16.5 12.4839Z" clip-rule="evenodd"></path><path fill="#8B98A6" fill-rule="evenodd" d="M4.25 13C4.25 12.5858 4.58579 12.25 5 12.25H9C9.41421 12.25 9.75 12.5858 9.75 13 9.75 13.4142 9.41421 13.75 9 13.75H5C4.58579 13.75 4.25 13.4142 4.25 13zM4.25 16C4.25 15.5858 4.58579 15.25 5 15.25H9C9.41421 15.25 9.75 15.5858 9.75 16 9.75 16.4142 9.41421 16.75 9 16.75H5C4.58579 16.75 4.25 16.4142 4.25 16z" clip-rule="evenodd"></path></svg>